# xmcd CD database file
#
# Track frame offsets:
#	150
#	28532
#	59145
#	84710
#	109760
#	138887
#	164127
#	197275
#	222560
#	247417
#	271335
#	297157
#	307480
#	323997
#
# Disc length: 4607 seconds
#
# Revision: 0
# Processed by: cddbd v1.5.2PL0 Copyright (c) Steve Scherf et al.
# Submitted via: CDex 1.50
#
DISCID=e611fd0e
DTITLE=Bob James - an anthology - CD2
DYEAR=2001
DGENRE=Jazz
TTITLE0=Night crawler
TTITLE1=You are so beautiful
TTITLE2=Touchdown
TTITLE3=Blue lick
TTITLE4=Kari (with Earl Klugh)
TTITLE5=Brighton by the sea
TTITLE6=Thoroughbred
TTITLE7=Sign of the times
TTITLE8=Love power
TTITLE9=Shamboozie
TTITLE10=Fireball
TTITLE11=Groove for Julie
TTITLE12=The Marilu
TTITLE13=Ruby, Ruby, Ruby
EXTD=YEAR: 2001
EXTT0=
EXTT1=
EXTT2=
EXTT3=
EXTT4=
EXTT5=
EXTT6=
EXTT7=
EXTT8=
EXTT9=
EXTT10=
EXTT11=
EXTT12=
EXTT13=
PLAYORDER=
